<?xml version="1.0" standalone="no"?>
<!DOCTYPE svg PUBLIC "-//W3C//DTD SVG 20010904//EN"
 "http://www.w3.org/TR/2001/REC-SVG-20010904/DTD/svg10.dtd">
<svg version="1.0" xmlns="http://www.w3.org/2000/svg"
 width="150.000000pt" height="150.000000pt" viewBox="0 0 150.000000 150.000000"
 preserveAspectRatio="xMidYMid meet">
<metadata>
Created by potrace 1.15, written by Peter Selinger 2001-2017
</metadata>
<g transform="translate(0.000000,150.000000) scale(0.100000,-0.100000)"
fill="#000000" stroke="none">
<path d="M917 1133 c-4 -3 -7 -17 -7 -29 0 -17 14 -33 54 -58 116 -74 165
-202 131 -339 -20 -78 -16 -97 20 -97 21 0 30 8 45 43 68 157 3 359 -149 456
-46 30 -80 39 -94 24z"/>
<path d="M462 1088 c-5 -7 -39 -155 -76 -328 -36 -173 -68 -325 -71 -337 -7
-31 20 -53 65 -53 41 0 70 20 70 48 0 11 10 6 35 -18 65 -63 191 -52 272 23
86 79 133 186 133 304 0 86 -25 141 -79 171 -68 39 -180 24 -238 -30 -28 -26
-28 -25 -2 101 16 80 18 105 9 117 -15 18 -103 19 -118 2z m257 -312 c12 -13
16 -35 16 -89 0 -124 -65 -210 -159 -209 -32 1 -46 7 -65 28 -20 24 -23 36
-19 88 8 125 80 213 167 203 23 -3 50 -12 60 -21z"/>
<path d="M858 989 c-29 -17 -21 -43 27 -82 55 -47 74 -98 56 -156 -13 -46 -7
-68 22 -77 42 -13 76 71 62 156 -9 53 -54 118 -101 147 -44 26 -43 26 -66 12z"/>
</g>
</svg>
